<?xml version="1.0" standalone="no"?>
<!DOCTYPE svg PUBLIC "-//W3C//DTD SVG 20010904//EN"
 "http://www.w3.org/TR/2001/REC-SVG-20010904/DTD/svg10.dtd">
<svg version="1.0" xmlns="http://www.w3.org/2000/svg"
 width="500.000000pt" height="500.000000pt" viewBox="0 0 500.000000 500.000000"
 preserveAspectRatio="xMidYMid meet">
<metadata>
Created by potrace 1.14, written by Peter Selinger 2001-2017
</metadata>
<g transform="translate(0.000000,500.000000) scale(0.100000,-0.100000)"
fill="#000000" stroke="none">
<path d="M0 2500 l0 -2500 2500 0 2500 0 0 2500 0 2500 -2500 0 -2500 0 0
-2500z m1790 312 c0 -471 -4 -800 -10 -850 -49 -388 -385 -623 -828 -581 -310
29 -516 186 -582 445 -11 42 -20 101 -20 131 l0 53 224 0 223 0 6 -49 c8 -65
36 -119 86 -164 47 -42 93 -57 182 -57 106 0 170 30 215 101 54 86 54 87 54
946 l0 793 225 0 225 0 0 -768z m1221 113 c147 -357 281 -685 299 -728 22 -53
37 -77 47 -75 9 2 125 274 312 728 l297 725 287 3 287 2 0 -1090 0 -1090 -225
0 -225 0 0 710 c0 413 -4 710 -9 710 -5 0 -136 -317 -291 -705 l-282 -705
-153 0 -154 0 -279 702 c-153 386 -284 704 -291 706 -8 3 -11 -179 -11 -707
l0 -711 -225 0 -225 0 0 1090 0 1090 287 -2 288 -3 266 -650z"/>
</g>
</svg>
